<!--?xml version="1.0" standalone="no"?-->
              <svg id="sw-js-blob-svg" viewBox="0 0 100 100" xmlns="http://www.w3.org/2000/svg" version="1.1">
                    <defs> 
                        <linearGradient id="sw-gradient" x1="0" x2="1" y1="1" y2="0">
                            <stop id="stop1" stop-color="rgba(248, 117, 55, 1)" offset="0%"></stop>
                            <stop id="stop2" stop-color="rgba(251, 168, 31, 1)" offset="100%"></stop>
                        </linearGradient>
                    </defs>
                <path fill="url(#sw-gradient)" d="M19.8,-24C25,-19.3,27.9,-12.4,30.2,-4.6C32.4,3.2,33.9,11.8,31.3,19.6C28.6,27.4,21.9,34.4,14.1,36C6.4,37.6,-2.2,33.8,-10.8,30.4C-19.3,26.9,-27.7,23.9,-32.7,17.7C-37.7,11.5,-39.4,2.1,-36.8,-5.5C-34.3,-13.1,-27.5,-18.9,-20.7,-23.3C-13.9,-27.7,-6.9,-30.5,0.2,-30.8C7.3,-31,14.7,-28.6,19.8,-24Z" width="100%" height="100%" transform="translate(50 50)" stroke-width="0" style="transition: all 0.3s ease 0s;"></path>
              </svg>